<?xml version="1.0" standalone="no"?>
<!DOCTYPE svg PUBLIC "-//W3C//DTD SVG 20010904//EN"
 "http://www.w3.org/TR/2001/REC-SVG-20010904/DTD/svg10.dtd">
<svg version="1.0" xmlns="http://www.w3.org/2000/svg"
 width="720.000000pt" height="400.000000pt" viewBox="0 0 720.000000 400.000000"
 preserveAspectRatio="xMidYMid meet">

<g transform="translate(0.000000,400.000000) scale(0.100000,-0.100000)"
fill="#000000" stroke="none">
<path d="M345 2831 c-63 -20 -134 -83 -172 -153 -17 -31 -18 -77 -21 -651 -3
-699 -4 -687 69 -771 23 -26 65 -59 93 -74 l51 -27 568 -3 c348 -2 601 1 652
7 119 14 175 53 229 155 l26 49 0 637 0 637 -26 49 c-35 67 -70 102 -129 130
l-50 24 -635 -1 c-349 -1 -644 -4 -655 -8z m874 -367 c179 -53 229 -273 90
-398 l-49 -44 32 -13 c83 -34 129 -107 136 -214 8 -121 -28 -195 -122 -250
-82 -47 -142 -55 -430 -55 l-266 0 0 495 0 495 278 0 c224 0 289 -3 331 -16z"/>
<path d="M790 2205 l0 -135 163 0 c143 0 166 2 194 20 46 28 66 72 60 133 -9
97 -54 115 -284 116 l-133 1 0 -135z"/>
<path d="M792 1788 l3 -153 177 2 c197 2 224 9 258 66 28 46 27 124 -3 168
-39 58 -62 64 -260 67 l-178 4 3 -154z"/>
<path d="M2420 2104 l0 -376 218 4 c179 3 224 7 257 21 83 37 125 101 125 191
-1 86 -44 154 -114 180 -18 6 -16 10 18 38 43 35 66 81 66 129 0 53 -22 109
-52 134 -53 45 -114 55 -325 55 l-193 0 0 -376z m421 240 c35 -38 34 -114 -2
-150 -26 -26 -30 -26 -160 -28 l-134 -1 -3 94 c-1 52 -1 99 1 105 3 7 50 10
139 8 130 -3 136 -4 159 -28z m10 -291 c56 -33 63 -134 14 -187 -24 -26 -25
-26 -175 -26 l-150 0 0 115 0 115 141 0 c116 0 146 -3 170 -17z"/>
<path d="M4390 2350 l0 -80 -39 0 c-32 0 -40 -4 -44 -22 -12 -48 -3 -63 41
-66 l42 -3 0 -172 c0 -95 5 -188 10 -208 14 -50 59 -71 143 -67 l62 3 3 43 3
42 -46 0 c-40 0 -47 3 -55 26 -6 15 -9 95 -8 183 l3 156 53 3 52 3 0 40 0 39
-55 0 -55 0 0 80 0 80 -55 0 -55 0 0 -80z"/>
<path d="M5270 2350 l0 -80 -46 0 -45 0 3 -42 c3 -43 3 -43 46 -46 l42 -3 0
-172 c0 -95 5 -189 11 -209 14 -52 50 -70 137 -66 l67 3 3 36 c3 36 2 36 -40
42 -65 9 -68 18 -68 203 l0 163 53 3 52 3 0 40 0 40 -52 3 -53 3 0 80 0 79
-55 0 -55 0 0 -80z"/>
<path d="M3276 2270 c-58 -18 -105 -61 -138 -127 -27 -56 -32 -76 -32 -141 1
-166 91 -269 245 -280 95 -7 156 16 212 78 52 58 72 118 71 211 -2 167 -101
270 -259 268 -38 0 -83 -5 -99 -9z m171 -100 c94 -57 103 -254 17 -332 -11 -9
-39 -21 -62 -28 -39 -10 -49 -9 -90 12 -65 32 -92 86 -92 183 0 60 4 77 26
111 15 23 38 48 53 57 36 23 109 21 148 -3z"/>
<path d="M3865 2256 c-27 -13 -62 -36 -77 -52 -87 -94 -90 -304 -6 -400 47
-53 101 -77 188 -82 165 -10 264 81 277 253 14 183 -90 305 -261 305 -54 0
-83 -6 -121 -24z m157 -66 c153 -43 152 -339 -2 -378 -130 -33 -225 113 -178
271 18 60 71 105 138 116 3 1 22 -4 42 -9z"/>
<path d="M4773 2256 c-64 -30 -88 -65 -88 -127 0 -80 58 -133 173 -159 102
-22 161 -49 168 -75 16 -65 -79 -116 -161 -85 -14 5 -43 27 -64 49 -33 34 -43
38 -82 37 -43 -2 -44 -3 -41 -31 10 -88 96 -145 218 -145 121 0 195 34 233
107 28 55 2 142 -53 178 -14 9 -60 26 -103 36 -154 39 -193 63 -178 110 9 26
44 39 107 39 45 0 54 -4 84 -35 29 -31 38 -35 83 -35 61 0 65 14 24 78 -37 56
-97 82 -195 82 -56 0 -85 -6 -125 -24z"/>
<path d="M5768 2260 c-20 -11 -48 -34 -62 -52 l-26 -33 0 48 0 47 -50 0 -50 0
0 -265 0 -265 24 -6 c13 -3 37 -4 52 -2 l29 3 5 165 c6 178 14 208 66 249 14
11 48 24 75 27 l49 7 0 48 0 49 -37 0 c-21 -1 -54 -10 -75 -20z"/>
<path d="M6050 2264 c-61 -26 -110 -86 -110 -134 0 -17 6 -20 49 -20 45 0 51
3 69 34 46 78 222 60 222 -23 0 -38 -28 -58 -97 -70 -165 -28 -183 -34 -219
-65 -84 -73 -53 -222 54 -257 51 -17 158 -6 214 21 l47 24 21 -27 c22 -28 48
-33 109 -21 27 6 31 11 31 38 0 22 -7 35 -25 46 -25 15 -25 16 -29 185 -4 205
-11 224 -89 261 -63 29 -189 33 -247 8z m220 -329 c0 -46 -5 -60 -29 -87 -24
-27 -36 -32 -88 -36 -66 -5 -117 14 -125 45 -8 30 10 79 34 91 26 14 140 40
181 41 26 1 27 0 27 -54z"/>
<path d="M6682 2246 c-54 -36 -62 -36 -62 1 0 21 -4 23 -50 23 l-50 0 0 -370
0 -370 55 0 55 0 0 137 0 137 28 -27 c61 -59 178 -75 258 -37 109 53 160 238
104 383 -42 111 -107 157 -220 157 -61 0 -73 -4 -118 -34z m169 -73 c89 -53
106 -240 30 -325 -25 -28 -36 -32 -93 -36 -62 -4 -66 -3 -100 30 -81 76 -78
257 6 323 38 30 113 34 157 8z"/>
</g>
</svg>
