<?xml version="1.0" standalone="no"?>
<!DOCTYPE svg PUBLIC "-//W3C//DTD SVG 20010904//EN"
 "http://www.w3.org/TR/2001/REC-SVG-20010904/DTD/svg10.dtd">
<svg version="1.0" xmlns="http://www.w3.org/2000/svg"
 width="512.000000pt" height="512.000000pt" viewBox="0 0 512.000000 512.000000"
 preserveAspectRatio="xMidYMid meet">

<g transform="translate(0.000000,512.000000) scale(0.100000,-0.100000)"
fill="#000000" stroke="none">
<path d="M360 5019 c0 -23 7 -112 15 -198 8 -86 28 -309 45 -496 16 -187 68
-770 115 -1295 47 -525 90 -1004 95 -1065 5 -60 32 -364 60 -675 28 -311 54
-602 57 -647 6 -81 6 -83 37 -92 17 -5 220 -62 451 -126 231 -64 474 -131 540
-150 129 -36 673 -186 742 -204 44 -12 46 -12 1278 330 77 21 236 65 353 98
117 32 214 60 216 62 1 2 15 148 30 324 15 176 38 439 52 585 13 146 42 470
64 720 22 250 44 502 50 560 5 58 23 260 40 450 17 190 39 442 50 560 11 118
33 370 50 560 17 190 37 415 45 501 8 86 15 175 15 198 l0 41 -2200 0 -2200 0
0 -41z m4000 -360 c0 -23 -7 -112 -15 -198 -14 -150 -90 -995 -120 -1346 -8
-93 -19 -217 -25 -275 -6 -58 -29 -307 -50 -555 -84 -947 -121 -1362 -126
-1402 -4 -36 -9 -44 -32 -49 -25 -6 -65 -16 -327 -89 -49 -14 -155 -43 -235
-66 -80 -23 -170 -47 -200 -55 -30 -8 -127 -35 -215 -59 -88 -24 -218 -61
-290 -80 -71 -20 -138 -38 -147 -41 -17 -5 -18 14 -18 300 0 168 -2 306 -4
306 -7 0 -151 39 -511 139 -537 150 -608 170 -616 178 -5 7 -80 818 -79 861 0
18 549 17 555 -1 3 -7 13 -106 24 -220 10 -114 20 -209 22 -211 2 -2 132 -38
289 -80 157 -42 293 -79 303 -82 16 -5 17 20 17 435 l0 441 -305 0 c-168 0
-305 1 -305 3 0 1 -11 119 -25 262 -14 143 -25 268 -25 278 0 16 22 17 330 17
l330 0 0 280 0 280 -670 0 -670 0 -1 28 c0 15 -10 137 -23 272 -13 135 -21
248 -19 253 2 4 314 7 694 7 l689 0 0 255 0 255 900 0 900 0 0 -41z"/>
</g>
</svg>
