<?xml version="1.0" standalone="no"?>
<!DOCTYPE svg PUBLIC "-//W3C//DTD SVG 20010904//EN"
 "http://www.w3.org/TR/2001/REC-SVG-20010904/DTD/svg10.dtd">
<svg version="1.0" xmlns="http://www.w3.org/2000/svg"
 width="512.000000pt" height="512.000000pt" viewBox="0 0 512.000000 512.000000"
 preserveAspectRatio="xMidYMid meet">

<g transform="translate(0.000000,512.000000) scale(0.100000,-0.100000)"
fill="#000000" stroke="none">
<path d="M2310 4435 c-564 -77 -1054 -388 -1362 -865 -78 -120 -119 -200 -172
-333 -187 -472 -179 -1002 21 -1467 187 -435 557 -809 988 -998 180 -78 230
-86 272 -39 31 33 34 65 27 233 l-7 155 -61 -8 c-108 -14 -235 -7 -306 17
-140 47 -208 115 -298 301 -55 113 -115 184 -207 249 -86 60 -63 108 47 97
101 -9 208 -85 281 -199 73 -114 154 -174 271 -198 67 -14 127 -8 219 20 63
20 64 20 75 67 16 71 46 135 81 176 l32 35 -28 6 c-15 3 -62 10 -103 17 -97
15 -269 71 -340 111 -279 156 -411 435 -397 836 3 97 10 166 22 202 22 73 80
186 119 235 48 59 47 58 31 122 -16 59 -21 213 -10 280 4 21 16 68 28 106 l21
67 40 0 c100 -1 262 -62 420 -159 l69 -43 65 17 c236 59 569 59 829 0 l70 -16
54 36 c142 93 347 170 436 163 l38 -3 23 -80 c33 -116 39 -259 14 -354 l-19
-74 46 -61 c122 -162 169 -361 142 -605 -16 -143 -44 -250 -97 -358 -57 -119
-170 -239 -284 -302 -87 -48 -253 -103 -360 -120 -41 -7 -85 -14 -98 -17 l-23
-5 25 -32 c37 -50 65 -111 81 -179 11 -49 15 -136 15 -384 0 -308 1 -322 20
-347 34 -43 77 -44 178 -7 655 244 1130 839 1228 1537 24 174 15 485 -19 643
-56 258 -173 531 -311 724 -241 336 -588 594 -967 720 -264 87 -589 118 -859
81z"/>
</g>
</svg>
