<?xml version="1.0" standalone="no"?>
<!DOCTYPE svg PUBLIC "-//W3C//DTD SVG 20010904//EN"
 "http://www.w3.org/TR/2001/REC-SVG-20010904/DTD/svg10.dtd">
<svg version="1.0" xmlns="http://www.w3.org/2000/svg"
 width="512.000000pt" height="512.000000pt" viewBox="0 0 512.000000 512.000000"
 preserveAspectRatio="xMidYMid meet">

<g transform="translate(0.000000,512.000000) scale(0.100000,-0.100000)"
fill="#000000" stroke="none">
<path d="M370 5019 c0 -17 7 -104 15 -193 8 -88 28 -314 45 -501 39 -449 124
-1400 155 -1745 43 -481 125 -1395 150 -1690 14 -157 27 -294 30 -305 3 -16
20 -25 77 -39 40 -10 109 -29 153 -41 44 -13 166 -46 270 -75 105 -28 226 -62
270 -75 44 -13 190 -53 325 -90 135 -37 347 -96 472 -131 l226 -63 119 33 c65
19 325 91 578 161 253 70 521 144 595 165 74 20 217 59 318 86 153 41 183 52
187 69 2 11 36 380 75 820 65 737 162 1828 210 2360 11 121 34 373 50 560 17
187 37 413 45 501 8 89 15 176 15 193 l0 31 -2190 0 -2190 0 0 -31z m3927
-851 c-3 -8 -6 -5 -6 6 -1 11 2 17 5 13 3 -3 4 -12 1 -19z m-362 -18 c-3 -5
-1 -10 5 -10 7 0 9 -12 5 -32 -3 -18 -7 -53 -9 -78 -3 -25 -9 -85 -15 -135 -5
-49 -13 -135 -17 -190 -4 -55 -9 -103 -10 -107 -1 -5 -2 -11 -3 -15 0 -5 -473
-7 -1051 -5 l-1050 3 0 -33 c0 -18 7 -103 14 -188 8 -85 18 -194 22 -243 l6
-87 1002 0 1001 1 3 -31 c2 -18 -4 -98 -12 -178 -8 -81 -18 -192 -21 -247 -3
-55 -8 -122 -11 -150 -3 -27 -6 -70 -8 -95 -1 -25 -5 -54 -9 -65 -3 -11 -13
-114 -22 -230 -8 -115 -18 -226 -20 -245 -5 -27 -3 -32 6 -20 9 12 10 11 4 -5
-16 -44 -24 -94 -30 -190 -7 -96 -14 -189 -18 -229 -2 -15 -21 -24 -87 -42
-47 -13 -99 -29 -117 -34 -18 -6 -41 -13 -51 -15 -11 -2 -50 -12 -88 -24 -38
-11 -85 -23 -104 -26 -70 -13 -205 -63 -202 -75 1 -6 -2 -9 -8 -5 -6 3 -8 10
-5 15 3 5 -14 3 -37 -4 -60 -19 -141 -42 -221 -63 -51 -13 -63 -19 -50 -25 13
-6 10 -7 -9 -3 -29 6 -90 -4 -84 -14 4 -5 -16 -9 -69 -12 -19 -1 -259 64 -820
222 -121 34 -240 67 -265 72 -56 13 -51 9 -56 49 -5 37 -74 817 -74 830 0 4
126 8 280 8 260 0 280 -1 280 -17 1 -51 38 -414 42 -418 3 -3 88 -28 189 -56
101 -27 232 -63 290 -79 114 -32 130 -35 157 -21 17 8 166 48 209 55 12 2 61
16 110 30 48 14 124 34 167 45 43 11 83 26 87 33 5 7 9 29 9 49 0 20 2 52 5
70 4 26 3 30 -4 14 -5 -11 -10 -14 -10 -7 -1 7 4 22 9 32 13 24 16 49 30 220
6 74 13 143 17 154 4 14 2 16 -8 10 -11 -6 -12 -5 -3 7 6 8 14 38 17 67 5 44
4 52 -11 53 -14 0 -14 2 3 8 24 10 -716 21 -1380 21 l-511 0 -22 258 c-13 141
-45 504 -73 806 -27 302 -49 562 -49 578 l0 28 1369 0 c903 0 1372 3 1376 10
3 6 8 10 11 10 3 0 2 -4 -1 -10z m43 -15 c-3 -3 -9 2 -12 12 -6 14 -5 15 5 6
7 -7 10 -15 7 -18z m-8 -35 c0 -5 -5 -10 -11 -10 -5 0 -7 5 -4 10 3 6 8 10 11
10 2 0 4 -4 4 -10z m-13 -122 c-3 -8 -6 -5 -6 6 -1 11 2 17 5 13 3 -3 4 -12 1
-19z m20 0 c-3 -8 -6 -5 -6 6 -1 11 2 17 5 13 3 -3 4 -12 1 -19z m-454 -425
c-178 -2 -468 -2 -645 0 -178 1 -33 2 322 2 355 0 500 -1 323 -2z m306 -1138
c2 11 5 15 7 9 3 -6 0 -22 -5 -35 -9 -21 -10 -21 -11 -4 0 17 -2 18 -11 5 -9
-12 -10 -12 -5 3 3 10 7 35 8 55 1 37 1 36 8 -8 4 -25 8 -36 9 -25z m281 50
c0 -8 -2 -15 -4 -15 -2 0 -6 7 -10 15 -3 8 -1 15 4 15 6 0 10 -7 10 -15z
m-903 -87 c-3 -8 -6 -5 -6 6 -1 11 2 17 5 13 3 -3 4 -12 1 -19z m930 0 c-3 -8
-6 -5 -6 6 -1 11 2 17 5 13 3 -3 4 -12 1 -19z m-320 -50 c-3 -8 -6 -5 -6 6 -1
11 2 17 5 13 3 -3 4 -12 1 -19z m-17 -78 c0 -5 -5 -10 -11 -10 -5 0 -7 5 -4
10 3 6 8 10 11 10 2 0 4 -4 4 -10z m-633 -237 c-3 -10 -5 -4 -5 12 0 17 2 24
5 18 2 -7 2 -21 0 -30z m1 -58 c-3 -3 -9 2 -12 12 -6 14 -5 15 5 6 7 -7 10
-15 7 -18z m929 -57 c-3 -8 -6 -5 -6 6 -1 11 2 17 5 13 3 -3 4 -12 1 -19z
m-940 -70 c-2 -13 -4 -5 -4 17 -1 22 1 32 4 23 2 -10 2 -28 0 -40z m600 -5
c-3 -10 -5 -4 -5 12 0 17 2 24 5 18 2 -7 2 -21 0 -30z m-710 -79 c-3 -3 -12
-4 -19 -1 -8 3 -5 6 6 6 11 1 17 -2 13 -5z m-110 -10 c-3 -3 -12 -4 -19 -1 -8
3 -5 6 6 6 11 1 17 -2 13 -5z m58 -4 c-27 -12 -43 -12 -25 0 8 5 22 9 30 9 10
0 8 -3 -5 -9z m-80 -20 c-27 -12 -43 -12 -25 0 8 5 22 9 30 9 10 0 8 -3 -5 -9z
m845 -45 c0 -5 -5 -3 -10 5 -7 11 -10 -2 -12 -45 -1 -53 -2 -55 -5 -16 -5 57
4 101 18 80 5 -7 9 -18 9 -24z m-1110 1 c0 -3 -4 -8 -10 -11 -5 -3 -10 -1 -10
4 0 6 5 11 10 11 6 0 10 -2 10 -4z m80 -6 c-8 -5 -26 -9 -40 -9 -23 1 -23 2 5
9 43 11 52 11 35 0z m-97 -27 c-7 -2 -19 -2 -25 0 -7 3 -2 5 12 5 14 0 19 -2
13 -5z m1424 -135 c-3 -8 -6 -5 -6 6 -1 11 2 17 5 13 3 -3 4 -12 1 -19z m-320
-125 c-3 -10 -5 -4 -5 12 0 17 2 24 5 18 2 -7 2 -21 0 -30z m-20 -30 c-3 -10
-5 -2 -5 17 0 19 2 27 5 18 2 -10 2 -26 0 -35z m-32 -44 c11 -16 1 -19 -13 -3
-7 8 -8 14 -3 14 5 0 13 -5 16 -11z m-192 -56 c-7 -2 -19 -2 -25 0 -7 3 -2 5
12 5 14 0 19 -2 13 -5z m-48 -13 c3 -6 -1 -7 -9 -4 -18 7 -21 14 -7 14 6 0 13
-4 16 -10z m-38 -6 c-3 -3 -12 -4 -19 -1 -8 3 -5 6 6 6 11 1 17 -2 13 -5z m90
-10 c-3 -3 -12 -4 -19 -1 -8 3 -5 6 6 6 11 1 17 -2 13 -5z m530 -36 c-3 -8 -6
-5 -6 6 -1 11 2 17 5 13 3 -3 4 -12 1 -19z m-860 -24 c-3 -3 -12 -4 -19 -1 -8
3 -5 6 6 6 11 1 17 -2 13 -5z m-52 -14 c-11 -5 -27 -9 -35 -9 -9 0 -8 4 5 9
11 5 27 9 35 9 9 0 8 -4 -5 -9z m-175 -40 c0 -5 -5 -10 -11 -10 -5 0 -7 5 -4
10 3 6 8 10 11 10 2 0 4 -4 4 -10z m-43 -16 c-3 -3 -12 -4 -19 -1 -8 3 -5 6 6
6 11 1 17 -2 13 -5z m-30 -12 c6 -4 -6 -7 -27 -7 -21 0 -33 3 -27 7 7 4 19 8
27 8 8 0 20 -4 27 -8z m50 -8 c-3 -3 -12 -4 -19 -1 -8 3 -5 6 6 6 11 1 17 -2
13 -5z m-72 -14 c-3 -5 -11 -10 -16 -10 -6 0 -7 5 -4 10 3 6 11 10 16 10 6 0
7 -4 4 -10z m-228 -46 c-3 -3 -12 -4 -19 -1 -8 3 -5 6 6 6 11 1 17 -2 13 -5z
m6 -21 c-7 -2 -19 -2 -25 0 -7 3 -2 5 12 5 14 0 19 -2 13 -5z m1384 -45 c-3
-8 -6 -5 -6 6 -1 11 2 17 5 13 3 -3 4 -12 1 -19z m-72 -88 c3 -5 1 -10 -4 -10
-6 0 -11 5 -11 10 0 6 2 10 4 10 3 0 8 -4 11 -10z m-305 -84 c0 -2 -7 -6 -15
-10 -8 -3 -15 -1 -15 4 0 6 7 10 15 10 8 0 15 -2 15 -4z m-323 -82 c-3 -3 -12
-4 -19 -1 -8 3 -5 6 6 6 11 1 17 -2 13 -5z m-417 -134 c-8 -5 -19 -10 -25 -10
-5 0 -3 5 5 10 8 5 20 10 25 10 6 0 3 -5 -5 -10z"/>
</g>
</svg>
