<?xml version="1.0" standalone="no"?>
<!DOCTYPE svg PUBLIC "-//W3C//DTD SVG 20010904//EN"
 "http://www.w3.org/TR/2001/REC-SVG-20010904/DTD/svg10.dtd">
<svg version="1.0" xmlns="http://www.w3.org/2000/svg"
 width="1280.000000pt" height="1280.000000pt" viewBox="0 0 1280.000000 1280.000000"
 preserveAspectRatio="xMidYMid meet">

<g transform="translate(0.000000,1280.000000) scale(0.100000,-0.100000)"
fill="#000000" stroke="none">
<path d="M9510 6984 c-647 -76 -1122 -380 -1372 -879 -55 -108 -110 -277 -133
-400 -23 -125 -30 -365 -16 -510 70 -714 464 -1177 1331 -1560 134 -59 221
-97 435 -190 487 -212 669 -328 768 -491 114 -190 97 -449 -40 -614 -99 -120
-226 -192 -428 -242 -119 -29 -402 -32 -535 -5 -366 73 -635 270 -885 649
l-37 57 -47 -26 c-178 -102 -923 -533 -929 -539 -5 -4 37 -83 94 -175 288
-466 743 -799 1302 -954 673 -186 1473 -114 1992 180 412 233 664 576 761
1038 27 126 37 439 20 596 -29 264 -109 508 -229 695 -238 371 -679 675 -1437
991 -334 139 -556 246 -680 329 -79 52 -183 159 -217 222 -56 104 -75 286 -43
409 61 231 275 375 561 375 335 0 540 -133 759 -495 9 -15 70 21 475 281 256
163 467 299 469 300 7 5 -49 97 -124 203 -296 422 -668 654 -1180 736 -96 16
-548 29 -635 19z"/>
<path d="M5760 4808 c0 -1786 -2 -2128 -14 -2208 -38 -248 -142 -402 -317
-470 -184 -71 -442 -67 -598 9 -158 76 -267 192 -415 439 -38 61 -72 112 -77
112 -5 0 -89 -49 -186 -108 -98 -60 -314 -191 -480 -292 -167 -101 -303 -188
-303 -193 0 -14 83 -166 128 -236 77 -118 160 -220 261 -321 116 -115 185
-170 325 -257 376 -234 907 -328 1441 -257 221 30 405 84 587 174 161 80 255
147 378 270 288 286 433 646 470 1160 6 92 10 908 10 2218 l0 2072 -605 0
-605 0 0 -2112z"/>
</g>
</svg>
