<?xml version="1.0" standalone="no"?>
<!DOCTYPE svg PUBLIC "-//W3C//DTD SVG 20010904//EN"
 "http://www.w3.org/TR/2001/REC-SVG-20010904/DTD/svg10.dtd">
<svg version="1.0" xmlns="http://www.w3.org/2000/svg"
 width="936.000000pt" height="440.000000pt" viewBox="0 0 936.000000 440.000000"
 preserveAspectRatio="xMidYMid meet">

<g transform="translate(0.000000,440.000000) scale(0.100000,-0.100000)"
fill="#000000" stroke="none">
<path d="M3766 3980 c-132 -76 -243 -145 -247 -152 -5 -7 -9 -380 -9 -829 0
-637 3 -819 13 -832 10 -13 227 -143 427 -255 25 -14 115 -66 200 -115 85 -50
198 -114 250 -144 l95 -55 35 19 c35 18 275 155 380 217 30 18 98 57 150 86
52 29 115 65 140 80 25 15 98 57 163 95 l117 67 1 241 c1 133 1 255 1 271 1
24 10 34 57 63 50 31 313 182 390 225 l31 17 0 290 0 290 -27 19 c-58 39 -471
272 -483 272 -14 0 -354 -191 -457 -257 l-53 -33 0 -269 0 -269 -152 -88
c-236 -135 -237 -136 -248 -129 -7 4 -10 180 -10 518 l0 513 -122 70 c-68 39
-179 103 -247 142 -68 40 -131 72 -140 72 -9 -1 -124 -63 -255 -140z m455 -47
c104 -60 189 -114 189 -120 0 -7 -15 -20 -32 -29 -18 -9 -85 -47 -148 -84 -63
-37 -136 -79 -162 -93 l-46 -26 -114 66 c-62 36 -150 86 -195 111 -46 25 -83
49 -83 53 0 4 78 52 173 107 209 121 210 121 220 122 5 0 94 -48 198 -107z
m1312 -205 c74 -44 109 -63 234 -133 40 -22 73 -44 73 -50 0 -13 -372 -225
-395 -225 -9 0 -29 8 -43 18 -15 10 -98 58 -184 108 -87 49 -158 94 -158 99 0
6 37 30 82 55 45 25 129 73 187 107 58 35 112 63 119 63 8 0 46 -19 85 -42z
m-1073 -480 l-1 -503 -147 -85 c-81 -46 -171 -97 -199 -113 l-53 -29 0 501 0
500 68 39 c37 22 126 74 197 116 72 41 131 76 133 76 1 0 2 -226 2 -502z
m-741 426 c158 -91 255 -147 261 -152 3 -2 7 -249 10 -549 l5 -545 233 -130
232 -131 0 -228 c0 -126 -4 -229 -9 -229 -7 0 -361 202 -756 431 l-110 64 -3
768 c-1 569 1 767 9 767 7 0 64 -30 128 -66z m1505 -314 l185 -105 1 -229 c0
-213 -1 -228 -17 -221 -10 3 -100 54 -200 112 l-183 105 0 225 c0 190 2 224
14 221 8 -2 98 -50 200 -108z m664 -116 l-3 -225 -193 -111 c-106 -61 -196
-108 -200 -104 -9 9 -13 429 -4 442 6 9 248 151 324 191 15 8 30 18 33 24 4 5
15 9 26 9 19 0 19 -7 17 -226z m-723 -393 c105 -61 190 -116 190 -123 0 -11
-614 -370 -811 -475 l-52 -27 -58 35 c-33 20 -119 69 -191 110 -73 41 -133 79
-133 84 0 8 222 139 714 419 28 16 71 42 96 57 25 16 47 29 50 29 3 0 91 -49
195 -109z m245 -420 l0 -228 -172 -98 c-95 -54 -216 -124 -268 -155 -188 -112
-416 -240 -428 -240 -10 0 -12 53 -10 227 l3 227 260 149 c143 81 337 193 430
247 94 54 173 99 178 99 4 1 7 -102 7 -228z"/>
<path d="M2080 1100 l0 -630 298 2 297 3 0 90 0 90 -192 3 -193 2 0 535 0 535
-105 0 -105 0 0 -630z"/>
<path d="M7155 1718 c-3 -7 -4 -290 -3 -628 l3 -615 98 -3 97 -3 0 631 0 630
-95 0 c-67 0 -97 -4 -100 -12z"/>
<path d="M3015 1314 c-110 -33 -222 -139 -265 -251 -66 -170 -28 -366 93 -487
157 -157 386 -169 540 -28 l27 26 0 -52 0 -52 95 0 95 0 0 420 0 420 -95 0
-95 0 0 -51 0 -51 -46 41 c-87 76 -224 102 -349 65z m214 -170 c148 -44 220
-228 148 -377 -28 -57 -81 -107 -131 -127 -39 -14 -141 -12 -180 4 -93 39
-150 134 -149 251 0 127 75 228 188 256 47 11 68 10 124 -7z"/>
<path d="M4619 1317 c-153 -43 -275 -187 -302 -356 -43 -279 174 -528 443
-509 77 6 157 38 196 79 15 16 31 29 35 29 4 0 9 -19 11 -42 l3 -43 98 -3 97
-3 0 421 0 420 -100 0 -100 0 0 -45 c0 -25 -3 -45 -6 -45 -3 0 -19 13 -35 29
-52 52 -114 76 -209 78 -47 2 -106 -3 -131 -10z m234 -182 c113 -47 175 -205
132 -335 -20 -61 -72 -123 -126 -151 -52 -26 -156 -26 -208 0 -114 58 -168
206 -124 337 29 86 80 135 173 165 32 11 109 3 153 -16z"/>
<path d="M6505 1321 c-66 -17 -153 -71 -202 -125 -108 -117 -143 -254 -109
-417 19 -89 48 -142 110 -204 83 -83 195 -125 336 -125 119 0 215 40 315 134
l50 46 -44 39 c-77 68 -84 70 -132 27 -121 -110 -290 -116 -386 -15 -32 34
-63 95 -63 124 0 13 40 15 325 15 l325 0 0 74 c0 131 -48 244 -139 330 -79 73
-146 100 -261 103 -52 1 -108 -2 -125 -6z m198 -160 c38 -15 96 -70 118 -112
19 -39 25 -79 12 -79 -184 -3 -445 -1 -449 3 -11 10 20 87 48 122 46 55 91 74
175 75 39 0 83 -4 96 -9z"/>
<path d="M3760 890 l0 -420 95 0 95 0 2 323 3 322 168 3 167 2 0 95 0 95 -265
0 -265 0 0 -420z"/>
<path d="M5300 1299 c0 -5 59 -164 132 -352 72 -188 141 -368 153 -399 11 -32
26 -63 31 -68 7 -7 57 -10 130 -8 l119 3 71 185 c39 102 108 282 154 400 46
118 85 223 88 233 4 15 -5 17 -96 17 l-99 0 -60 -157 c-131 -346 -178 -463
-184 -463 -8 0 -43 89 -161 399 -38 102 -74 193 -79 203 -8 15 -23 18 -104 18
-61 0 -95 -4 -95 -11z"/>
</g>
</svg>
