<?xml version="1.0" standalone="no"?>
<!DOCTYPE svg PUBLIC "-//W3C//DTD SVG 20010904//EN"
 "http://www.w3.org/TR/2001/REC-SVG-20010904/DTD/svg10.dtd">
<svg version="1.0" xmlns="http://www.w3.org/2000/svg"
 width="150.000000pt" height="150.000000pt" viewBox="0 0 150.000000 150.000000"
 preserveAspectRatio="xMidYMid meet">

<g transform="translate(0.000000,150.000000) scale(0.100000,-0.100000)"
fill="#000000" stroke="none">
<path d="M42 1473 c-22 -9 -43 -61 -36 -90 4 -16 31 -62 61 -103 37 -51 63
-103 83 -163 17 -48 47 -115 68 -148 l39 -61 -18 -63 c-25 -90 -30 -160 -18
-230 12 -71 53 -150 92 -179 26 -19 30 -19 55 -5 21 11 29 26 38 70 17 87 18
87 49 26 28 -54 155 -194 155 -170 0 7 -4 15 -10 18 -27 17 -169 270 -170 303
0 25 -20 11 -45 -31 -15 -27 -27 -67 -31 -105 -7 -66 -18 -76 -48 -43 -48 53
-61 230 -26 343 11 34 20 68 20 74 0 6 -16 31 -35 55 -21 27 -47 80 -66 138
-22 64 -50 121 -90 180 -36 53 -59 98 -59 114 0 24 4 27 33 27 36 0 115 -35
166 -74 27 -20 46 -26 88 -26 99 0 230 -73 356 -196 89 -88 160 -199 232 -361
32 -73 71 -155 86 -182 27 -47 32 -50 108 -76 84 -27 259 -140 250 -160 -2 -5
-7 -9 -11 -8 -17 6 -146 -17 -181 -32 l-38 -16 18 -30 c25 -44 88 -96 158
-131 33 -17 86 -48 119 -70 32 -22 56 -36 53 -31 -23 37 -105 115 -168 159
-42 30 -81 60 -88 67 -11 14 -3 17 152 47 31 6 57 16 57 21 0 14 -71 82 -136
130 -32 23 -97 62 -145 86 l-87 43 -91 197 c-55 117 -112 224 -142 265 -129
173 -356 327 -485 328 -28 0 -54 9 -80 27 -86 58 -183 86 -232 66z"/>
<path d="M312 1223 c12 -26 44 -73 49 -73 16 0 18 35 4 56 -14 21 -62 36 -53
17z"/>
</g>
</svg>
