<?xml version="1.0" standalone="no"?>
<!DOCTYPE svg PUBLIC "-//W3C//DTD SVG 20010904//EN"
 "http://www.w3.org/TR/2001/REC-SVG-20010904/DTD/svg10.dtd">
<svg version="1.0" xmlns="http://www.w3.org/2000/svg"
 width="825.000000pt" height="481.000000pt" viewBox="0 0 825.000000 481.000000"
 preserveAspectRatio="xMidYMid meet">

<g transform="translate(0.000000,481.000000) scale(0.100000,-0.100000)"
fill="#000000" stroke="none">
<path d="M0 2405 l0 -2405 4125 0 4125 0 0 2405 0 2405 -4125 0 -4125 0 0
-2405z m5120 880 c0 -2 -13 -68 -30 -145 -16 -77 -30 -147 -30 -155 0 -13 24
-15 143 -15 284 0 386 -60 387 -229 0 -40 -21 -168 -54 -330 -30 -146 -58
-283 -61 -303 l-7 -37 -117 -3 c-64 -2 -119 -1 -122 2 -4 3 20 137 53 299 40
197 57 306 53 328 -10 56 -40 68 -190 71 l-130 4 -70 -351 -70 -351 -65 0
c-36 0 -89 -3 -117 -6 -50 -6 -53 -5 -53 15 0 17 184 953 220 1116 5 22 11 52
15 68 l5 27 120 0 c66 0 120 -2 120 -5z m-2712 -59 c76 -32 128 -64 161 -99
22 -25 26 -25 112 -20 245 16 484 -87 568 -246 18 -33 29 -176 41 -518 9 -247
8 -313 -5 -424 -52 -446 -178 -768 -357 -910 -46 -36 -57 -40 -91 -36 -55 7
-64 20 -42 54 134 203 189 447 155 681 -9 69 -13 73 -94 118 -38 21 -70 29
-136 35 -130 10 -186 53 -250 192 -29 61 -29 62 -30 26 0 -62 -19 -142 -46
-198 -21 -42 -35 -57 -68 -72 -50 -23 -136 -24 -238 -5 -311 60 -454 237 -488
604 -19 203 18 428 92 562 53 96 153 197 233 235 93 44 155 55 295 51 108 -3
134 -8 188 -30z m2045 -295 c123 -62 175 -172 163 -343 -16 -228 -159 -437
-341 -495 -34 -11 -108 -18 -234 -22 l-185 -6 -22 -110 c-13 -60 -28 -134 -34
-162 l-11 -53 -120 0 c-65 0 -119 3 -119 8 0 4 36 187 80 407 44 220 99 494
121 608 l42 208 296 -3 296 -3 68 -34z m2029 6 c71 -35 114 -77 147 -147 22
-48 26 -68 26 -155 0 -204 -79 -372 -228 -482 -88 -64 -133 -75 -347 -82
l-184 -6 -22 -105 c-12 -58 -27 -131 -34 -162 l-11 -58 -120 0 c-77 0 -119 4
-119 11 0 5 54 280 120 610 66 330 120 603 120 605 0 3 134 4 298 2 l297 -3
57 -28z"/>
<path d="M2961 2574 c-24 -31 -26 -43 -9 -78 20 -46 77 -53 114 -15 22 23 25
33 20 63 -12 61 -87 78 -125 30z"/>
<path d="M3996 2759 c-8 -22 -96 -472 -96 -488 0 -12 19 -13 105 -8 133 9 224
31 260 64 55 51 112 227 101 309 -14 105 -50 125 -238 132 -102 3 -129 2 -132
-9z"/>
<path d="M6036 2759 c-8 -22 -96 -469 -96 -486 0 -34 308 5 356 45 57 48 104
178 107 296 1 82 -9 103 -68 133 -42 22 -292 32 -299 12z"/>
</g>
</svg>
